<?xml version="1.0" encoding="utf-8"?>
<!-- Generator: Adobe Illustrator 21.0.0, SVG Export Plug-In . SVG Version: 6.00 Build 0)  -->
<svg version="1.1" xmlns="http://www.w3.org/2000/svg" xmlns:xlink="http://www.w3.org/1999/xlink" x="0px" y="0px"
	 viewBox="0 0 1366 768" style="enable-background:new 0 0 1366 768;" xml:space="preserve">
<style type="text/css">
	.st0{display:none;}
	.st1{fill:url(#SVGID_1_);}
	.st2{fill:#FFFFFF;}
	.st3{fill:#E0CCB1;}
	.st4{opacity:0.36;fill:#E6D6C1;}
	.st5{fill:#E4D2BB;}
	.st6{fill:none;stroke:#F9F5F0;stroke-miterlimit:10;}
	.st7{opacity:0.43;fill:#E0CCB1;}
	.st8{fill:#8CC63F;stroke:#000000;stroke-linecap:round;stroke-miterlimit:10;}
	.st9{fill:#D8BF9E;}
	.st10{opacity:0.46;fill:#E6D6C1;}
	.st11{opacity:0.52;fill:#D8BF9E;}
	.st12{opacity:0.41;fill:#D8BF9E;}
	.st13{opacity:0.35;fill:#D8BF9E;}
	.st14{fill:#42210B;}
	.st15{fill:#7C5963;}
	.st16{fill:#FCFCFC;}
	.st17{opacity:0.44;fill:#E6D6C1;}
	.st18{fill:#603813;}
	.st19{fill:#CEB79B;}
	.st20{fill:#D1CBCC;}
	.st21{fill:#603813;stroke:#603813;stroke-miterlimit:10;}
	.st22{fill:#63574D;}
	.st23{fill:none;stroke:#000000;stroke-linecap:round;stroke-miterlimit:10;}
	.st24{fill:none;stroke:#000000;stroke-width:0.5;stroke-linecap:round;stroke-miterlimit:10;}
	.st25{fill:none;stroke:#D8BF9E;stroke-width:0.5;stroke-linecap:round;stroke-miterlimit:10;}
	.st26{fill:#D8BF9E;stroke:#D8BF9E;stroke-width:0.5;stroke-linecap:round;stroke-miterlimit:10;}
	.st27{fill:none;stroke:#000000;stroke-width:0.25;stroke-miterlimit:10;}
	.st28{fill:none;stroke:#63574D;stroke-width:0.5;stroke-linecap:round;stroke-miterlimit:10;}
	.st29{fill:none;stroke:#000000;stroke-miterlimit:10;}
	.st30{fill:url(#SVGID_2_);}
	.st31{fill:#B7656B;}
	.st32{opacity:0.17;fill:#FCFCFC;}
	.st33{fill:#161615;}
	.st34{fill:none;stroke:#161615;stroke-miterlimit:10;}
	.st35{opacity:0.53;fill:#D8BF9E;}
</style>
<g id="Capa_2" class="st0">
</g>
<g id="Capa_5">
	<g>
		<linearGradient id="SVGID_1_" gradientUnits="userSpaceOnUse" x1="427.002" y1="168.0007" x2="427.002" y2="758.0035">
			<stop  offset="0" style="stop-color:#FD5FB3"/>
			<stop  offset="0.5614" style="stop-color:#FD9980"/>
			<stop  offset="0.9" style="stop-color:#FDB865"/>
			<stop  offset="1" style="stop-color:#FDBB62"/>
		</linearGradient>
		<circle class="st1" cx="427" cy="463" r="295"/>
		<path class="st2" d="M627.4,679.4c-28.3,26.3-61.8,47-98,60.4c-18.1,6.7-36.9,11.7-56,14.8c-19.1,3.1-38.5,4.3-57.8,3.7
			c-19.3-0.7-38.6-3.2-57.5-7.6c-18.9-4.4-37.3-10.6-55-18.6c-35.4-15.9-67.5-39-94.1-67.4c-26.6-28.4-47.6-62-61.4-98.5
			c-13.7-36.5-20.3-75.7-18.9-114.8c1.4-39,10.4-77.9,26.7-113.4c16.3-35.6,39.7-67.9,68.4-94.5c28.7-26.6,62.7-47.5,99.5-60.9
			c36.7-13.5,76.1-19.5,115.2-17.9c39,1.6,77.7,11.2,113,27.7c35.3,16.5,67.2,40.1,93.5,68.7c26.2,28.7,46.8,62.5,60,99
			c6.6,18.2,11.4,37.1,14.3,56.2c2.9,19.1,3.9,38.6,3.1,57.9c-0.8,19.3-3.5,38.6-8.1,57.4c-4.5,18.8-11,37.1-19.1,54.7
			C679,621.4,655.8,653.2,627.4,679.4z M627.4,679.4c28.3-26.3,51.4-58.1,67.5-93.2c16.1-35.1,25-73.4,26.3-111.9
			c1.3-38.5-5.1-77.2-18.7-113.2c-13.5-36-34.3-69.2-60.6-97.1c-26.3-28-58-50.7-92.8-66.5c-17.4-7.9-35.6-14-54.2-18.3
			c-18.6-4.3-37.6-6.8-56.7-7.5c-19.1-0.6-38.2,0.6-57,3.6c-18.8,3.1-37.3,8-55.2,14.6c-35.7,13.2-68.7,33.7-96.7,59.6
			c-28,25.9-50.9,57.2-66.8,91.8c-16,34.6-25.2,72.3-26.8,110.5c-0.8,19.1,0.2,38.2,3.1,57.1c2.9,18.9,7.6,37.5,14.1,55.5
			c13,36,33.3,69.3,59.2,97.7c25.9,28.3,57.4,51.6,92.2,67.8c34.8,16.3,72.9,25.7,111.5,27.3c38.5,1.6,77.4-4.3,113.6-17.7
			C565.6,726.3,599.1,705.6,627.4,679.4z"/>
	</g>
	<path class="st3" d="M466.5,74.5c8.6,2.3,20.4,6.8,30,17c14,14.8,14.4,32.4,16,73c3.5,91.2,4.5,95.3-1,107
		c-14,29.6-33.2,29.2-39,56c-3.7,17.3,1.8,29,16,65c39.3,99.7,37.8,113.7,32,123c-5.4,8.7-21.6,14.1-54,25
		c-31.2,10.5-46.8,15.7-66,17c-15.4,1-74.8,5.1-109-36c-19.2-23.1-21.7-49.8-23-64c-1.5-15.9-3.9-42.4,12-61
		c8.1-9.5,15.9-1.6,23.5-10.5c15.2-18,8.6-50.9,6.5-66.5c-1.5-11-9.8-73.5-6-117c2.1-23.6,7-79.4,49-110c26.1-19,55.9-20.6,72-20
		C439.2,73.2,452.8,73.8,466.5,74.5z"/>
	<polygon class="st2" points="427.5,204.2 438.8,199.5 447.8,200.1 456.6,203.9 464,213.2 465.8,216.6 461,217 441.8,216.1 
		434,212.8 428.3,207.6 	"/>
	<path class="st4" d="M351.5,360.5c5.8-4,15.4,10.9,30,9c10-1.3,13.2-9.2,24-8c2.8,0.3,7.3,0.8,10,4c5.6,6.6-3.5,15.7-4,34
		c-0.5,17,7,22.3,2,32c-1.6,3.1-6.1,6.4-15,13c-12.4,9.2-18.7,13.7-23,12c-3.7-1.5-3.6-5.7-8-16c-4.7-11.2-6.8-10.9-11-20
		c-5.5-12.1-6-23.7-7-47C349.1,364.9,349.4,361.9,351.5,360.5z"/>
	<g>
		<g>
			<g>
				<g>
					<g>
						<path class="st5" d="M362,84.8c0,0.1,0.2,0.2,0.2,0.1l-0.1-0.3L362,84.8z"/>
						<path class="st5" d="M362.9,84.9c0-0.2,0-0.5-0.3-0.7c0.1,0.3,0,0.2,0.1,0.6c-0.1,0.1-0.2,0-0.3-0.1c0,0.1-0.2,0-0.1,0.2
							c0.3,0.1,0.4,0,0.4-0.2C362.9,84.8,362.9,84.9,362.9,84.9z"/>
						<path class="st5" d="M372,81.6L372,81.6C371.9,81.6,372,81.6,372,81.6z"/>
						<path class="st5" d="M377.9,80.7C377.9,80.7,377.9,80.7,377.9,80.7C377.9,80.7,377.9,80.7,377.9,80.7z"/>
						<path class="st5" d="M379,80.9C379,80.9,378.9,80.9,379,80.9C378.9,80.9,379,80.9,379,80.9z"/>
						<path class="st5" d="M372,81.6l0.2,0.1C372.2,81.6,372.1,81.6,372,81.6z"/>
						<path class="st5" d="M363.6,83.5c0,0,0,0.1,0,0.1C363.6,83.6,363.6,83.6,363.6,83.5L363.6,83.5z"/>
						<path class="st5" d="M369.5,82.6L369.5,82.6c0,0.1,0,0.1,0,0.2L369.5,82.6z"/>
						<path class="st5" d="M367.7,83.3c0,0,0-0.3-0.1-0.4c0,0.1,0,0.2,0,0.2C367.6,83.2,367.6,83.3,367.7,83.3z"/>
						<path class="st5" d="M364.6,84.3L364.6,84.3C364.6,84.3,364.6,84.3,364.6,84.3z"/>
						<path class="st5" d="M370.9,82.2C371,82.3,371,82.3,370.9,82.2C371,82.3,371,82.3,370.9,82.2z"/>
						<path class="st5" d="M427.6,75C427.6,75,427.6,75,427.6,75C427.6,75,427.6,75,427.6,75z"/>
						<polygon class="st5" points="430,76.3 430,76.3 430,76.5 						"/>
						<path class="st5" d="M380.9,81L380.9,81C380.8,81,380.9,81,380.9,81z"/>
						<path class="st5" d="M398.1,79c-0.2-0.2,0.3-0.3,0-0.6C398.1,78.5,397.8,78.8,398.1,79z"/>
						<path class="st5" d="M363.7,83.5C363.7,83.5,363.8,83.5,363.7,83.5C363.7,83.5,363.7,83.5,363.7,83.5z"/>
						<path class="st5" d="M398,78.4L398,78.4L398,78.4C398,78.4,398,78.4,398,78.4z"/>
						<path class="st5" d="M385.2,80.3c0,0,0-0.1-0.1-0.1C385.1,80.2,385.1,80.3,385.2,80.3z"/>
						<path class="st5" d="M381.9,80.3L381.9,80.3C382,80.3,381.9,80.3,381.9,80.3z"/>
						<path class="st5" d="M386.8,79.7c0,0,0.1,0.1,0.1,0C386.9,79.7,386.9,79.7,386.8,79.7C386.9,79.8,386.9,79.8,386.8,79.7z"/>
						<polygon class="st5" points="388.5,79.5 388.5,79.5 388.5,79.5 						"/>
						<path class="st5" d="M422.3,75.2c0,0.1,0.1,0.2,0.1,0.3C422.3,75.3,422.6,75.2,422.3,75.2z"/>
						<path class="st5" d="M363.7,83.6c0-0.1,0-0.1,0-0.1L363.7,83.6C363.7,83.6,363.7,83.6,363.7,83.6z"/>
						<path class="st5" d="M386.6,77.5l0.3,0C386.8,77.5,386.7,77.5,386.6,77.5z"/>
						<path class="st5" d="M409.7,75.8L409.7,75.8C409.7,75.8,409.7,75.8,409.7,75.8z"/>
						<path class="st5" d="M387.7,77.4c0.1,0.1,0.1,0.1,0.2,0.2c0,0,0,0,0-0.1L387.7,77.4z"/>
						<path class="st5" d="M422.4,75.5L422.4,75.5L422.4,75.5z"/>
						<path class="st5" d="M424.2,74.8c-0.3,0-0.1,0.4-0.2,0.6c-0.3,0.1-0.2-0.3-0.3-0.5c-0.2,0.1-0.3,0.4-0.5,0.4
							c0-0.1,0-0.1,0-0.2c-0.2,0.3-0.6,0-0.9,0.4c0,0,0-0.1,0-0.1c0,0.2,0.1,0.4,0.1,0.5c-0.1,0-0.2,0.2-0.3,0
							c0.1,0,0.1-0.1,0.1-0.2l-0.1,0.1c-0.1-0.3,0.2-0.1,0.2-0.4c-0.2,0.1-0.5,0.4-0.7,0.3c0-0.3,0.4-0.1,0.2-0.4l0.3,0.1
							c-0.2-0.5,0.2,0,0-0.5c-0.4-0.1-0.4,0.2-0.8,0.1c-0.1,0.2,0,0.3,0,0.5c-0.5,0.4-0.5-0.8-0.8-0.4c-0.1,0.2-0.1,0.7-0.4,0.4
							l0.1-0.4c-0.4,0-0.2,0.6-0.6,0.3c0.1-0.2,0.3-0.1,0.2-0.2c-0.3-0.3-0.2,0.2-0.4,0.2l-0.1-0.3c-0.4,0.1-0.8,0.3-1.2,0.4
							c0-0.1,0.1-0.2,0-0.3c-0.5,0.2-1.2,0-1.7-0.2l-0.2,0.3c0,0-0.1-0.1,0-0.2c-0.2-0.1,0,0.2-0.1,0.3c-0.1,0-0.2-0.2-0.1-0.3
							c-0.4,0.3-1,0.6-1.4,0.3l0.1-0.1c-0.3-0.1-0.3,0.6-0.6,0.4l0.1-0.1c-0.7-0.1-1.4,0.2-1.9-0.2c-0.1,0.4-0.6-0.2-0.7,0.4
							c-0.4-0.3-0.3-0.4-0.8-0.5c-0.1,0-0.2,0.4-0.4,0.5l0-0.3l-0.2,0.3l-0.1-0.4l-0.2,0.1c0.1,0,0.1,0.1,0.1,0.2
							c-0.2,0.2-0.6-0.2-0.6-0.3l-0.6,0.3c0-0.1,0.1-0.2,0.2-0.3c-0.3,0.3-0.1-0.3-0.4,0c0,0.1,0,0.2,0,0.2
							c-0.2-0.2-0.5-0.2-0.7-0.1l0-0.2c-0.4,0-0.9,0.2-1.4,0.2c0.2,0.1,0.2,0.5,0,0.5l-0.1-0.3c-0.1,0.2,0.2,0.1,0,0.4
							c-0.2,0-0.1-0.4,0-0.5l-0.2,0.1c0-0.1,0-0.2,0-0.3c-0.1,0.2-0.4-0.3-0.5,0.1l0-0.1c-0.5,0-0.7,0.2-1.1,0.2
							c0,0.3-0.1,0.2-0.3,0.5c-0.3-0.1-0.6-0.3-1-0.2c-0.2,0.2-0.1,0.2-0.2,0.4c0-0.3-0.4-0.2-0.2-0.4c-0.4,0.1-0.5,0.1-1.1,0.3
							c0.1,0.1,0.1,0.1,0.1,0.2c-0.1,0-0.2-0.1-0.2-0.2l0,0c-0.6,0.4-1.5-0.6-1.9-0.1l0,0l-0.5,0.3c-0.2,0,0.1-0.2-0.1-0.3
							c-0.5,0.5-0.9,0-1.3,0.3c-0.4-0.7-1.2,0.2-1.7-0.3l0,0.2c-0.1,0.2-0.2-0.1-0.2-0.1c0,0.1,0.1,0.1,0.1,0.3
							c-1,0.3-2.1-0.1-3.2-0.1c-0.4,0-0.1,0.9-0.6,0.6l0.1-0.3c-0.7,0.5-1.6,0.1-2.3,0.6c0-0.1,0-0.2,0.1-0.2
							c-0.2-0.2-0.6,0-0.6,0.2c-0.1,0,0-0.2-0.1-0.3c-0.2-0.1-0.4,0.3-0.5,0.1c0,0,0-0.1,0.1-0.1c-0.1,0.1-0.5,0-0.4,0.3
							c-0.3-0.1-0.5,0.2-0.8,0c-0.1,0.3-0.5-0.1-0.5,0.3c0-0.5-0.5-0.3-0.7-0.1c0-0.1-0.2-0.1-0.1-0.3c-0.2,0-0.4,0.1-0.3,0.4
							c-0.4-0.5-0.7,0.5-1-0.1c-0.6,0.3-1.1,0.5-1.6,0.7c0-0.5,0.6-0.1,0.5-0.6c-0.5,0.2-0.7,0.7-1.3,0.6c-0.1,0,0.1-0.2,0.1-0.3
							c-0.5,0.2-1,0.1-1.4,0.4c0,0,0-0.1,0.1-0.1c-0.1,0-0.2,0-0.2,0.2l0.1-0.1c0.2,0.3-0.3,0.7-0.3,0.8c0.1-0.6-0.5-0.1-0.3-0.9
							c-0.1,0-0.1,0.2-0.1,0.3c-0.1,0-0.1-0.1-0.1-0.3c-0.3,0.2-0.2,0.4-0.5,0.4c0-0.1,0-0.1,0.1-0.3c-0.1,0.2-0.2,0.4-0.5,0.4
							c0-0.1,0-0.1,0-0.1c-0.4,0.1-0.7,0.6-1.1,0.5c0.1-0.4-0.2-0.1-0.3-0.5l-0.2,0.1l0.1,0.2c-0.2,0-0.4,0.3-0.6,0.2l0.1-0.2
							l-0.4,0.1l0.3,0.1c-0.2,0.2,0.1,0.5-0.2,0.4c0.1,0-0.2,0-0.4-0.2l0,0c-0.1,0.1-0.2,0.3-0.4,0.2c-0.1-0.1,0-0.4-0.1-0.5
							c-0.1,0.3-0.5,0.2-0.6,0.5c0-0.1,0-0.3,0-0.3l0,0.3c-0.1-0.1-0.1-0.1-0.1-0.3c-0.3,0,0.2,0.5-0.2,0.3c0,0,0-0.1,0.1-0.1
							c-0.4,0-0.7,0.3-1,0.2c-0.2-0.4,0.3-0.1,0.1-0.4c-0.5,0.2-0.9,0.6-1.4,0.6l0.1,0c0,0.5-0.4-0.2-0.6,0.1c0-0.1,0-0.3,0-0.2
							c-0.3,0-0.6,0.3-1.1,0.5l0-0.1c-0.2-0.1-0.5,0.1-0.7,0c0,0.1-0.1,0.2,0,0.3c-0.8-0.6-1.1,0.7-1.8,0.3c0.1,0,0.1-0.2,0.1-0.1
							l-0.4,0.3c0.1,0.2,0.1,0.1,0.3,0.3c0,0.1-0.1,0.3-0.2,0.3c0.2-0.2-0.1-0.4-0.2-0.4c0,0.1,0,0.1,0.1,0.2
							c-0.4-0.3,0.1,0.5-0.3,0.3l0-0.1c-0.1,0.1-0.2,0.3-0.3,0.3c-0.1-0.2,0.1-0.2,0-0.4c-0.2,0.1-0.2,0.6-0.4,0.4
							c0.1-0.1,0.2-0.1,0.2-0.2c-0.3-0.2-0.3-0.1-0.4-0.1l0,0l-0.4,0l0.1,0c0,0.7-0.4,0.3-0.5,0.9c0.1-0.5,0-0.3-0.1-0.5
							c-0.1,0-0.3-0.1-0.3-0.2c0,0.3-0.3-0.1-0.4,0.3c0-0.1-0.2,0.1-0.2-0.2c-0.2,0.2,0.1,0.1,0.2,0.3c-0.1,0.4-0.9,0-1.1,0.6
							c-0.3,0.4-0.2,0.7-0.4,1c-0.2-0.1-0.1-0.4-0.1-0.4c-0.2,0-0.4,0.1-0.5,0.3c0-0.1-0.1-0.1-0.2-0.2c-0.1,0.1,0.1,0.4-0.1,0.3
							c0-0.1-0.1-0.3-0.1-0.4c-0.1,0.2-0.2,0.4-0.3,0.6c-0.1-0.1,0-0.3,0-0.4c-0.1,0.2-0.4,0.4-0.3,0.7l0.2,0
							c-0.1,0.1-0.2-0.2-0.1-0.2c0-0.3,0.3-0.1,0.3,0l-0.1,0.1c0.4,0.4,0.4-0.3,0.6-0.5l0.1,0.4l0-0.4c0.1,0.1,0.3,0.2,0.2,0.4
							c0.3,0.1,0.1-0.2,0.3-0.1c0,0,0,0,0,0.1l0.1-0.2c0,0.1,0.2,0.2,0,0.2c0.4,0.1,0.3-0.5,0.6-0.3l0,0c0.3-0.3-0.1-0.3,0-0.8
							l0.5,0.6l-0.1-0.3c0,0,0.1,0,0.2,0.1c0.1-0.3-0.1-0.1-0.1-0.3c0.3,0.2,0.5-0.4,0.7,0c0-0.2-0.3-0.1-0.1-0.3
							c0.3,0.5,0.2-0.2,0.5,0c0,0.3-0.2,0.2,0.1,0.4c-0.1-0.5,0.4-0.1,0.5-0.2c-0.1-0.3,0.3-0.3,0.5-0.5c0,0.1,0.6,0,0.9,0l0,0.1
							c-0.1-0.4,0.2-0.4,0.4-0.5c0.1,0.2,0.1,0.3,0,0.4l0.2-0.1c0-0.1,0-0.2,0.1-0.3l0,0.3c0.2-0.1,0.4-0.5,0.7-0.4
							c-0.1-0.3-0.4-0.6-0.2-0.9c0.1,0.1,0.1,0.4,0.1,0.4c0,0,0.1-0.1,0.1-0.1l-0.1,0.3c0.2,0.1,0-0.2,0.1-0.2
							c0.1,0.2,0.1,0.1,0.1,0.3c0,0-0.1-0.1-0.1,0c0.1,0,0.3,0.1,0.4,0.2c0-0.1-0.1-0.3,0-0.3c0.2-0.1,0.1,0.2,0.3,0.3
							c0-0.1,0.2,0,0.1-0.3c0.1,0,0.1,0.1,0.2,0.2c0.1-0.2,0.6-0.2,0.4-0.5l0,0l0,0l0,0l0,0c0.3-0.4,0.9,0,1.3-0.3l0,0.1
							c0.2-0.2,0.5-0.2,0.7-0.4c0.1,0,0.2,0.1,0.2,0.3c0.2-0.1,0.2-0.2,0.5-0.1c-0.2,0.2,0.1,0.1-0.2,0.2c0.3,0,0.3,0.2,0.6-0.1
							c0,0.3,0.2,0.3,0.3,0.2l-0.2-0.1c0.1-0.1,0.2-0.1,0.4-0.1l0,0.3c0.6,0.3,0.8-0.8,1.3-0.2c0.1-0.3-0.3-0.1-0.2-0.4
							c0.2,0,0.6,0.4,0.6,0.4c0.3,0.1,0.2-0.5,0.6-0.4c-0.1-0.1-0.1-0.4,0.1-0.6c0.2,0,0.4,0.5,0.2,0.6c-0.1,0-0.1,0-0.1-0.1
							c-0.1,0.1-0.2,0.1,0,0.2l0-0.1c0.1,0.1,0.4,0,0.4,0.2c0.2-0.1,0-0.2-0.1-0.2c0.3,0.1,0.5-0.1,0.8,0c-0.1-0.1-0.1-0.2-0.1-0.2
							c0.5,0.1,0.2-0.3,0.5-0.3c0.2,0.2,0,0.4,0.3,0.2c0.2,0.1,0.1,0.3,0,0.4c0.2-0.3,0.5,0.1,0.7,0.1l-0.1,0.1
							c0.1-0.1,0.2-0.1,0.2-0.1l-0.1-0.2c0.1,0,0.2,0,0.2,0.1c0.1-0.2-0.1-0.4,0-0.6c0.1,0.1,0.3-0.2,0.4,0.1
							c-0.4-0.1,0.1,0.3-0.2,0.4c0.1,0,0.1-0.1,0.2,0c0,0,0,0.1,0,0.1c0.4,0.2,0.1-0.4,0.5-0.4c0,0.2,0.1,0.3,0.2,0.3
							c-0.1,0-0.1-0.3,0-0.4c0.2,0.1,0.2-0.1,0.4-0.1l-0.1,0c0-0.2,0.1-0.2,0.3-0.2c0,0.1-0.1,0.1-0.1,0.2c0.1-0.3,0.4,0.3,0.7,0
							c0.1,0.1,0.1,0.3,0.2,0.4c0.3-0.3,0.3,0.2,0.6,0c-0.1-0.2-0.1-0.2,0.1-0.4l-0.5,0.2l0.3-0.4c-0.1,0-0.3,0.2-0.4,0.2
							c0.1-0.2,0.1-0.2,0-0.3c0.2,0.3,0.4-0.3,0.6,0l0.1,0.6c0.4,0.2,0.6-0.4,1-0.3l-0.2-0.1c0-0.2,0.3-0.1,0.4-0.2
							c0,0.2,0.1,0.3,0.2,0.4c0-0.1,0.3,0,0.3-0.4l0.2,0.2c0.4,0.1,0.4-0.6,0.7-0.6c-0.1,0.2,0.1,0.3-0.1,0.5c0.1,0,0.2,0,0.2-0.1
							c0.1,0.1,0.3-0.3,0.4-0.1c0-0.1,0-0.3,0.2-0.3c0,0,0,0.1,0,0.1c0-0.1,0.2-0.2,0.1-0.4c0.4,0.6,1-0.2,1.4,0.3
							c0.2-0.1,0.5-0.2,0.8-0.2c0,0.1,0,0.1,0,0.1c0.3,0.1,0.1-0.6,0.5-0.4c0.2,0.3-0.2,0.2,0,0.3c0.1,0.6,0.4-0.1,0.7,0.2l-0.1,0
							c0.2,0.2,0.4-0.3,0.7-0.3c0,0,0,0.1,0,0.1c0.2-0.4,0.6-0.5,0.8-0.6c-0.1,0.3-0.1,0.1,0,0.4c0.1,0-0.1-0.4,0.2-0.5
							c0.1,0.1,0.3,0.2,0.4,0.5l-0.2,0c0.2,0.3,0.3,0,0.5,0l0,0.2c0.4-0.1,0.3-0.5,0.8-0.5l-0.1-0.1c0.2-0.4,0.2,0.2,0.4-0.1
							l0.1,0.4c0.1-0.1,0.5-0.4,0.7-0.5c-0.1,0.3-0.4,0.5-0.6,0.7c0.1,0,0.5-0.1,0.6-0.3c-0.1,0-0.1,0.1-0.2,0.1
							c0.2-0.3,0.4-0.5,0.7-0.5c0,0.8,0.8,0.1,1,0.7c0.5-0.3,1,0,1.6-0.1c-0.3-0.6,0.2,0,0.1-0.6c0.1-0.1,0.2,0,0.2,0l0.5,0.3
							c0.1,0.2-0.1,0.1-0.1,0.3c0.3,0,0.2,0.2,0.4,0.4c-0.1-0.2,0.1-0.3,0.3-0.3l-0.3-0.3c0.4-0.4,0.4,0.5,0.8,0.1l-0.1,0.2
							c0.2-0.1,0.8-0.1,1-0.6c0,0.1,0.1,0.2,0,0.3c0.5,0,1.1-0.6,1.6-0.3l0,0.2c0.1-0.1,0.2-0.3,0.3-0.2c0,0.1,0,0.2,0,0.2
							c0-0.1,0.2-0.3,0.4-0.2l-0.1,0.2c0.5,0.2,0.8-0.5,1.2-0.6c0,0.4,0.4,0.6,0.7,0.6l0,0.1c0.6,0,1-0.4,1.5-0.6
							c0.4,0.5,1.2,0.1,1.8,0.4c-0.1-0.1,0-0.3,0.1-0.4c0.1,0.1,0.3-0.3,0.3,0.1l0,0c0.1,0.4,0.4,0.3,0.6,0.3l0-0.5
							c0.6,0.7,1.4-0.4,1.8,0.3c0.1-0.1,0.3-0.1,0.4-0.3l0,0.3c0.4,0.1,0.6,0.1,1,0l-0.1,0.2c0.3,0,0.3-0.8,0.5-0.9l0.1,0.4
							c0.4,0,0.9,0.3,1.3-0.1c0,0.1,0,0.2-0.1,0.2c0.2,0,0.8,0.2,0.7-0.3c0,0.4,0.5,0,0.7-0.2l0,0.3c0.2-0.4,0.2-0.5,0.5-0.6
							c0.1,0,0.1,0.2,0,0.2c0.2,0.1,0.2-0.3,0.4-0.1l-0.1,0.2c0.2,0,0.2-0.1,0.3-0.3c0.1-0.1,0.4,0.1,0.5,0.3c0-0.2,0.1-0.4,0.3-0.3
							c0,0.1,0,0.2,0,0.2c0.4,0.2,0.6-0.4,0.8-0.1c0,0.1,0,0.1,0.1,0.2c-0.3,0-0.6,0-0.5,0c0,0.3,0.3,0.3,0.1,0.7
							c0.2-0.2,0.5-0.6,0.8-0.5c0,0,0,0,0,0.1l0,0c0.1,0,0.1,0,0.2,0c0.1,0,0.1,0.1,0.2,0.1c0,0.2,0.3,0.1,0.4,0.1
							c0-0.3,0.1-0.2,0-0.5c0,0,0,0-0.1,0c0,0,0,0-0.1,0l0,0c-0.1,0-0.2,0-0.3,0c0.1-0.1,0.2-0.3,0.3-0.1c0.1-0.2,0.1-0.4,0.2-0.5
							c0.2,0.4,0.5,0.6,0.6,0.8c0.4-0.2,0.9-0.1,1.1-0.7c0.1-0.1,0.1,0.1,0.2,0.2c-0.1,0.1-0.1,0-0.2,0.1c0.2-0.1,0.6-0.1,0.7-0.4
							c0.3,0.2-0.1,0.3,0.2,0.3l0,0.1c0.7,0.6,1.2-1,2-0.2c-0.1,0-0.1-0.1-0.1-0.1c0.9,0.3,1.9-0.4,2.8,0.1c0.3,0.1,0.3-0.1,0.4-0.3
							l0.1,0.3l0.3-0.4c0.4-0.3,0.7,0.7,1.2,0.2l-0.1-0.2c0.2,0,0.6-0.1,0.5,0.1c0,0,0.1-0.2,0.1-0.1l0,0.2l0.4-0.3
							c0.3,0.1,0,0.6,0.4,0.7c0.2-0.1,0.5-0.5,0.4-0.6c-0.1,0-0.2-0.1-0.2-0.3l0.2-0.1c0-0.5,0.1-0.9-0.3-1.3l-0.3,0.3l-0.1-0.2
							l0.2,0c-0.1-0.2-0.2,0-0.3,0.1c0-0.1-0.1-0.2-0.1-0.2l-0.3,0.4c0-0.2,0.1-0.4-0.1-0.5c-0.1,0.2,0.1,0.4-0.1,0.5
							c-0.1-0.2-0.1-0.4-0.3-0.2c0-0.1,0-0.2,0.1-0.3c-0.1,0.1-0.4,0.1-0.4,0.3c-0.1-0.3-0.5,0.1-0.5-0.4c0,0.1-0.2,0.3-0.4,0.4
							c0.2-0.5-0.5,0-0.4-0.6c-0.2,0.5-0.6,0.2-0.9,0.5c0,0,0-0.1,0.1-0.1c-0.2,0-0.2-0.2-0.3-0.3c0,0.4-0.3,0.5-0.4,0.7
							c-0.2-0.4,0.1-0.5,0-0.8c0,0.3-0.4,0.3-0.3,0.6c-0.2-0.2-0.1-0.1-0.2-0.4c0,0.5-0.2,0.1-0.3,0.4c-0.2-0.2-0.1-0.5-0.3-0.3
							C423.9,74.9,424.2,74.8,424.2,74.8z M418,75.8L418,75.8c0.1,0,0.1,0,0.1,0C418.1,75.8,418.1,75.8,418,75.8z M417.5,75.8
							c0.1,0,0.1,0,0.2,0c0,0.1,0,0.2,0,0.2C417.7,76,417.6,75.9,417.5,75.8z M418.6,77.7c-0.1,0-0.1,0-0.1-0.1c0,0,0.1,0,0.1,0l0,0
							C418.7,77.6,418.7,77.7,418.6,77.7z"/>
						<path class="st5" d="M418.8,77.4C418.8,77.4,418.8,77.3,418.8,77.4C418.8,77.3,418.8,77.3,418.8,77.4L418.8,77.4L418.8,77.4z"
							/>
						<path class="st5" d="M371.9,81.6L371.9,81.6C371.9,81.6,371.9,81.6,371.9,81.6C371.9,81.6,371.9,81.6,371.9,81.6z"/>
						<polygon class="st5" points="410.2,75.7 410.2,75.7 410.3,75.7 						"/>
						<path class="st5" d="M368.9,81.5C368.9,81.4,368.9,81.4,368.9,81.5C368.8,81.4,368.9,81.4,368.9,81.5z"/>
						<path class="st5" d="M367.7,81.8l-0.2,0C367.6,81.8,367.6,81.8,367.7,81.8z"/>
						<path class="st5" d="M366.7,82.1c0,0.1,0,0.1,0,0.1l0,0L366.7,82.1z"/>
						<path class="st5" d="M381.6,78.5C381.6,78.5,381.6,78.4,381.6,78.5C381.7,78.4,381.7,78.4,381.6,78.5z"/>
						<path class="st5" d="M377.2,79.7c0-0.1,0.1-0.1,0.1-0.2C377.3,79.5,377.2,79.5,377.2,79.7z"/>
						<polygon class="st5" points="386.6,77.5 386.6,77.5 386.6,77.5 						"/>
						<path class="st5" d="M377.6,79.5c-0.1,0-0.2,0-0.2,0C377.4,79.6,377.5,79.6,377.6,79.5z"/>
						<path class="st5" d="M362.9,84L362.9,84C362.8,84,362.9,84,362.9,84L362.9,84z"/>
						<path class="st5" d="M362.9,84L362.9,84C362.9,84.1,362.9,84,362.9,84z"/>
						<path class="st5" d="M362.8,84.2l0.1-0.1C362.8,84.1,362.8,84.1,362.8,84.2z"/>
						<path class="st5" d="M364.1,83.4L364.1,83.4C364,83.3,364,83.3,364.1,83.4z"/>
						<path class="st5" d="M364.4,83.2c-0.1,0-0.3-0.1-0.4,0l0,0.1C364,83.1,364.4,83.4,364.4,83.2z"/>
						<path class="st5" d="M366.4,83.6l-0.3,0.1c0.1,0.1,0.2,0.2,0.1,0.3C366.7,84,366,83.7,366.4,83.6z"/>
						<path class="st5" d="M367.4,83.3c-0.1,0.1,0.1,0.1,0.1,0.2C367.5,83.4,367.5,83.3,367.4,83.3z"/>
						<path class="st5" d="M374.1,81.3l0,0.3C374.3,81.5,374.1,81.5,374.1,81.3z"/>
						<polygon class="st5" points="375.2,79.8 375.1,79.6 375.1,79.9 						"/>
						<polygon class="st5" points="376.3,81.4 376.3,81.5 376.5,81.3 						"/>
						<path class="st5" d="M388.3,79.8l-0.1-0.3C388.1,79.6,388.1,79.9,388.3,79.8z"/>
						<path class="st5" d="M393.4,79c0.1,0.2,0.2,0.2,0.3,0.1C393.6,79,393.5,78.9,393.4,79z"/>
						<polygon class="st5" points="409,78.3 408.9,78.4 409.1,78.3 						"/>
					</g>
				</g>
			</g>
		</g>
	</g>
	<g>
		<g>
			<path class="st6" d="M431,136"/>
		</g>
	</g>
	<g>
		<g>
			<g>
				<g>
					<g>
						<path class="st5" d="M401.5,48.9c-0.1,0.1-0.1,0.3,0,0.3l0.2-0.3L401.5,48.9z"/>
						<path class="st5" d="M401.8,49.7c0.1-0.1,0.3-0.3,0.4-0.7c-0.2,0.3-0.2,0.1-0.4,0.5c-0.1,0-0.1-0.1,0-0.3
							c-0.1,0.1-0.1-0.1-0.2,0.1c0,0.3,0.1,0.3,0.3,0.2C401.8,49.6,401.8,49.6,401.8,49.7z"/>
						<path class="st5" d="M408.6,52.8L408.6,52.8C408.6,52.8,408.6,52.8,408.6,52.8z"/>
						<path class="st5" d="M412.9,54.7C412.9,54.7,412.8,54.7,412.9,54.7C412.9,54.7,412.9,54.7,412.9,54.7z"/>
						<path class="st5" d="M413.5,55.3C413.5,55.3,413.5,55.3,413.5,55.3C413.5,55.3,413.5,55.4,413.5,55.3z"/>
						<path class="st5" d="M408.6,52.8l0.1,0.1C408.7,52.9,408.7,52.9,408.6,52.8z"/>
						<path class="st5" d="M403,49.3C403,49.3,402.9,49.3,403,49.3C402.9,49.4,403,49.4,403,49.3L403,49.3z"/>
						<path class="st5" d="M406.6,52.4L406.6,52.4c-0.1,0-0.1,0.1-0.1,0.1L406.6,52.4z"/>
						<path class="st5" d="M405.1,51.9c0,0,0.1-0.2,0.2-0.3c-0.1,0.1-0.1,0.1-0.1,0.2C405.1,51.7,405.1,51.8,405.1,51.9z"/>
						<path class="st5" d="M402.9,50.5L402.9,50.5C402.9,50.5,402.9,50.5,402.9,50.5z"/>
						<path class="st5" d="M407.6,52.8C407.6,52.9,407.6,52.9,407.6,52.8C407.6,52.9,407.6,52.9,407.6,52.8z"/>
						<path class="st5" d="M448.5,70.3C448.4,70.3,448.4,70.3,448.5,70.3C448.4,70.3,448.5,70.3,448.5,70.3z"/>
						<polygon class="st5" points="448.7,72.6 448.7,72.6 448.6,72.7 						"/>
						<path class="st5" d="M414.7,56.2L414.7,56.2C414.7,56.2,414.7,56.2,414.7,56.2z"/>
						<path class="st5" d="M427.1,61.2c0-0.3,0.4-0.2,0.3-0.5C427.4,60.7,427,60.9,427.1,61.2z"/>
						<path class="st5" d="M403,49.4C403.1,49.4,403.1,49.4,403,49.4C403.1,49.4,403,49.4,403,49.4z"/>
						<path class="st5" d="M427.4,60.6L427.4,60.6L427.4,60.6C427.4,60.6,427.4,60.6,427.4,60.6z"/>
						<path class="st5" d="M417.9,57.3c0,0,0-0.1,0-0.1C417.9,57.2,417.9,57.2,417.9,57.3z"/>
						<path class="st5" d="M415.7,56L415.7,56C415.8,56,415.8,56,415.7,56z"/>
						<path class="st5" d="M419.3,57.4C419.3,57.5,419.3,57.5,419.3,57.4C419.3,57.5,419.3,57.4,419.3,57.4
							C419.3,57.5,419.3,57.5,419.3,57.4z"/>
						<path class="st5" d="M420.5,57.9C420.5,57.9,420.5,57.9,420.5,57.9L420.5,57.9L420.5,57.9z"/>
						<path class="st5" d="M445,67.7c0,0.1-0.1,0.2-0.1,0.2C445,67.7,445.3,67.8,445,67.7z"/>
						<path class="st5" d="M403,49.5C403,49.4,403,49.4,403,49.5c0.1-0.1,0-0.1,0-0.1C403,49.4,403,49.4,403,49.5z"/>
						<path class="st5" d="M420.2,55.4l0.2,0.1C420.3,55.5,420.2,55.4,420.2,55.4z"/>
						<path class="st5" d="M436.4,62.9L436.4,62.9C436.4,62.9,436.4,62.9,436.4,62.9z"/>
						<path class="st5" d="M420.9,55.7c0,0.1,0,0.2,0,0.2c0,0,0,0,0.1-0.1L420.9,55.7z"/>
						<path class="st5" d="M444.9,67.9L444.9,67.9L444.9,67.9z"/>
						<path class="st5" d="M446.5,68.2c-0.2-0.1-0.3,0.2-0.5,0.4c-0.3-0.1,0.1-0.3,0.1-0.5c-0.2,0-0.5,0.2-0.6,0.1
							c0-0.1,0-0.1,0.1-0.1c-0.3,0.1-0.4-0.3-0.8-0.1c0,0,0-0.1,0-0.1c-0.1,0.2-0.2,0.3-0.3,0.4c-0.1,0-0.3,0.1-0.2-0.1
							c0,0,0.1,0,0.2-0.1l-0.1,0c0.1-0.3,0.2,0,0.3-0.2c-0.2,0-0.6,0.1-0.6-0.1c0.2-0.3,0.3,0.1,0.4-0.3l0.1,0.2
							c0.2-0.5,0.1,0.1,0.3-0.5c-0.2-0.3-0.4-0.1-0.6-0.3c-0.2,0.1-0.1,0.2-0.3,0.4c-0.5,0,0.2-0.9-0.3-0.7
							c-0.2,0.1-0.4,0.5-0.5,0.2l0.3-0.3c-0.2-0.2-0.4,0.4-0.6,0c0.1-0.1,0.3,0,0.2,0c0-0.4-0.2,0.1-0.4,0l0.2-0.3
							c-0.3-0.1-0.7-0.1-1-0.2c0.1-0.1,0.2-0.1,0.2-0.3c-0.5-0.1-0.8-0.5-1-0.9l-0.3,0.2c0,0,0-0.1,0.1-0.2
							c-0.1-0.2-0.1,0.2-0.2,0.2c-0.1,0,0-0.2,0.1-0.3c-0.4,0.1-1,0.1-1.1-0.3l0.1-0.1c-0.2-0.2-0.5,0.4-0.6,0.1l0.1,0
							c-0.4-0.3-1-0.3-1.2-0.9c-0.3,0.3-0.4-0.4-0.7,0.1c-0.1-0.4,0-0.4-0.3-0.8c-0.1-0.1-0.3,0.3-0.5,0.3l0.1-0.3l-0.3,0.2l0.1-0.4
							l-0.1,0c0,0,0,0.2,0,0.2c-0.2,0-0.3-0.4-0.3-0.5l-0.5,0c0.1-0.1,0.2-0.1,0.2-0.2c-0.4,0.2,0.1-0.3-0.2-0.2
							c0,0.1-0.1,0.2-0.1,0.2c0-0.2-0.3-0.3-0.5-0.3l0.1-0.2c-0.3-0.2-0.7-0.2-1-0.4c0.1,0.1-0.1,0.5-0.2,0.5l0.1-0.3
							c-0.2,0.2,0.1,0.2-0.2,0.3c-0.1-0.1,0.1-0.4,0.2-0.4l-0.2,0c0-0.1,0.1-0.1,0.2-0.2c-0.2,0.2-0.1-0.4-0.4-0.1l0-0.1
							c-0.3-0.2-0.6-0.1-0.8-0.3c-0.1,0.3-0.2,0.1-0.4,0.3c-0.2-0.2-0.3-0.5-0.6-0.6c-0.2,0-0.2,0.2-0.3,0.3c0.1-0.2-0.2-0.3,0-0.4
							c-0.3-0.1-0.4-0.1-0.9-0.1c0,0.1,0,0.2,0,0.2c-0.1,0-0.1-0.2-0.1-0.3l0,0c-0.6,0.2-0.7-1.1-1.2-0.8l0,0l-0.5,0.1
							c-0.1-0.1,0.2-0.1,0.1-0.3c-0.6,0.2-0.6-0.3-1-0.2c0.1-0.8-0.9-0.3-1-0.9l-0.1,0.2c-0.2,0.1-0.1-0.1-0.1-0.2
							c0,0.1,0,0.2-0.1,0.3c-0.8-0.1-1.4-0.9-2.1-1.4c-0.3-0.2-0.5,0.8-0.7,0.2l0.2-0.3c-0.7,0.1-1.1-0.5-1.8-0.4
							c0.1-0.1,0.1-0.1,0.2-0.1c0-0.3-0.4-0.2-0.5,0c-0.1-0.1,0-0.2,0-0.3c-0.1-0.2-0.4,0.2-0.4-0.1c0,0,0.1-0.1,0.1-0.1
							c-0.1,0.1-0.3-0.2-0.4,0.1c-0.2-0.2-0.4,0-0.5-0.3c-0.2,0.2-0.3-0.3-0.5,0.1c0.2-0.4-0.2-0.5-0.4-0.3c0.1-0.1-0.1-0.2,0.1-0.3
							c-0.1-0.1-0.3,0-0.4,0.2c-0.1-0.6-0.7,0.2-0.6-0.5c-0.5,0-1,0-1.4,0c0.2-0.4,0.4,0.1,0.6-0.3c-0.4,0-0.8,0.3-1.1,0
							c-0.1-0.1,0.1-0.2,0.2-0.2c-0.4,0-0.7-0.3-1.1-0.2c0,0,0.1-0.1,0.1-0.1c-0.1,0-0.1-0.1-0.2,0.1l0.1,0c0,0.3-0.5,0.5-0.6,0.6
							c0.3-0.5-0.3-0.3,0.2-0.9c-0.1,0-0.1,0.1-0.2,0.2c0-0.1,0-0.1,0.1-0.3c-0.3,0-0.3,0.2-0.5,0.2c0-0.1,0.1-0.1,0.2-0.2
							c-0.2,0.1-0.4,0.3-0.5,0.1c0-0.1,0-0.1,0.1-0.1c-0.3-0.1-0.7,0.3-1,0c0.3-0.4-0.1-0.2,0.1-0.5l-0.2,0l0,0.2
							c-0.2-0.1-0.4,0.1-0.5,0l0.2-0.1l-0.3-0.1l0.1,0.2c-0.2,0.1-0.2,0.4-0.3,0.3c0.1,0-0.2-0.1-0.2-0.3l0,0
							c-0.1,0.1-0.2,0.2-0.3,0c0-0.1,0.2-0.4,0.2-0.5c-0.2,0.3-0.4-0.1-0.6,0.2c0.1-0.1,0.1-0.2,0.1-0.3l-0.2,0.2c0-0.1,0-0.1,0-0.3
							c-0.2-0.1-0.1,0.5-0.3,0.2c0,0,0-0.1,0.1-0.1c-0.2-0.2-0.6,0-0.8-0.3c0.1-0.4,0.2,0,0.3-0.3c-0.4-0.1-0.9,0.1-1.2-0.1l0,0.1
							c-0.2,0.5-0.2-0.3-0.4-0.2c0.1,0,0.2-0.3,0.1-0.2c-0.2-0.2-0.5-0.1-0.9,0l0.1-0.1c-0.1-0.2-0.3-0.2-0.5-0.3
							c-0.1,0.1-0.2,0.1-0.2,0.3c-0.2-0.9-1,0.1-1.2-0.7c0,0,0.2-0.1,0.1-0.1l-0.4,0c-0.1,0.2,0,0.1,0,0.3c-0.1,0.1-0.2,0.2-0.3,0.1
							c0.2-0.1,0.1-0.3,0.1-0.5c0,0.1-0.1,0.1-0.1,0.2c0-0.5-0.2,0.4-0.3,0.1l0.1-0.1c-0.1,0-0.3,0.1-0.3,0.1
							c0.1-0.3,0.1-0.1,0.2-0.3c-0.1,0-0.5,0.4-0.5,0.1c0.1,0,0.2,0,0.3-0.1c0-0.3-0.1-0.3-0.2-0.4l0,0l-0.2-0.2l0,0.1
							c-0.4,0.6-0.4,0-0.8,0.3c0.4-0.3,0.1-0.2,0.3-0.5c0-0.1-0.1-0.2,0-0.3c-0.2,0.2-0.1-0.2-0.4,0c0-0.1-0.1-0.1,0-0.3
							c-0.2,0,0,0.2-0.1,0.3c-0.3,0.2-0.4-0.6-0.9-0.3c-0.3,0.1-0.5,0.4-0.8,0.4c0-0.2,0.2-0.3,0.2-0.3c-0.1-0.2-0.2-0.2-0.4-0.1
							c0.1-0.1,0.1-0.1,0.1-0.3c-0.1,0-0.2,0.3-0.3,0.1c0.1-0.1,0.2-0.2,0.2-0.3c-0.2,0-0.3,0.2-0.5,0.2c0-0.2,0.2-0.2,0.3-0.3
							c-0.2,0-0.4,0-0.6,0.2l0.1,0.1c-0.1,0,0.1-0.2,0.1-0.3c0.2-0.2,0.1,0.2,0.1,0.2l-0.1,0c-0.1,0.6,0.4,0.1,0.6,0.2l-0.2,0.4
							l0.3-0.3c0,0.1-0.1,0.3-0.2,0.4c0.1,0.2,0.2-0.1,0.2,0.2c0,0,0,0.1,0,0.1l0.2-0.1c-0.1,0.1-0.1,0.3-0.1,0.2
							c0.1,0.3,0.5-0.2,0.5,0.2l0,0c0.4,0,0.1-0.3,0.5-0.5l-0.1,0.8l0.1-0.3c0,0,0.1,0.1,0,0.2c0.2-0.1,0-0.1,0.2-0.3
							c0.1,0.3,0.5,0,0.4,0.5c0.1-0.2-0.1-0.2,0.1-0.3c-0.1,0.5,0.2,0,0.3,0.3c-0.1,0.2-0.2,0-0.2,0.3c0.2-0.4,0.2,0.2,0.4,0.2
							c0.1-0.3,0.3,0,0.6-0.1c-0.1,0.1,0.3,0.3,0.5,0.5l0,0.1c0.2-0.3,0.3-0.2,0.5-0.2c-0.1,0.2-0.1,0.3-0.3,0.3l0.1,0
							c0.1-0.1,0.1-0.1,0.2-0.1l-0.1,0.2c0.2,0.1,0.5-0.2,0.6,0.1c0.1-0.2,0.1-0.7,0.4-0.8c0,0.1-0.1,0.4-0.2,0.4c0,0,0.1-0.1,0.1,0
							l-0.2,0.2c0.1,0.1,0.1-0.2,0.2-0.1c-0.1,0.2,0,0.2-0.1,0.3c0,0,0-0.1-0.1,0c0.1,0.1,0.2,0.2,0.1,0.4c0-0.1,0.1-0.2,0.2-0.2
							c0.2,0.1,0,0.2,0,0.4c0.1-0.1,0.2,0.1,0.3-0.2c0.1,0,0,0.2,0,0.2c0.1-0.1,0.4,0.1,0.5-0.2l0,0c0,0,0,0,0,0l0,0l0,0
							c0.4-0.2,0.6,0.4,0.9,0.4l0,0.1c0.2,0,0.4,0.1,0.6-0.1c0.1,0,0.1,0.2,0,0.3c0.2,0,0.2-0.1,0.4,0.1c-0.2,0.1,0,0.2-0.2,0.1
							c0.1,0.1,0.1,0.3,0.4,0.1c-0.2,0.2,0,0.3,0.1,0.3l-0.1-0.2c0.1,0,0.2,0.1,0.3,0.1l-0.2,0.3c0.2,0.5,0.9-0.4,0.9,0.4
							c0.2-0.2-0.1-0.2,0-0.4c0.2,0.1,0.2,0.6,0.2,0.6c0.2,0.3,0.4-0.4,0.6-0.2c0-0.1,0.1-0.4,0.3-0.5c0.2,0.1,0,0.5-0.1,0.6
							c0,0,0,0,0-0.1c-0.1,0-0.2,0-0.1,0.2l0.1-0.1c0,0.1,0.3,0.2,0.2,0.4c0.2-0.1,0.1-0.2,0.1-0.3c0.2,0.2,0.3,0.1,0.5,0.3
							c0-0.1,0-0.2,0-0.2c0.3,0.3,0.2-0.2,0.5-0.1c0.1,0.2-0.2,0.4,0.1,0.3c0.1,0.2-0.1,0.3-0.2,0.4c0.3-0.1,0.3,0.3,0.4,0.4l-0.1,0
							c0.1,0,0.1,0,0.2,0l0-0.2c0,0.1,0.1,0.1,0.1,0.2c0.1-0.1,0.1-0.4,0.3-0.5c0,0.1,0.3,0,0.2,0.3c-0.2-0.2-0.1,0.3-0.3,0.3
							c0.1,0,0.1,0,0.2,0.1c0,0,0,0.1-0.1,0.1c0.1,0.4,0.2-0.3,0.5-0.2c-0.1,0.2-0.1,0.3,0,0.3c-0.1,0,0.1-0.3,0.2-0.4
							c0.1,0.2,0.2,0,0.3,0l-0.1-0.1c0.1-0.2,0.2-0.1,0.3-0.1c0,0.1-0.1,0-0.1,0.1c0.2-0.2,0.2,0.4,0.4,0.3c0,0.1-0.1,0.3-0.1,0.4
							c0.3-0.1,0.1,0.3,0.4,0.2c0-0.2,0-0.2,0.2-0.4l-0.4,0l0.4-0.2c-0.1,0-0.3,0.1-0.3,0c0.2-0.1,0.1-0.1,0.2-0.3
							c0,0.4,0.4-0.1,0.4,0.2l-0.2,0.5c0.2,0.3,0.6-0.1,0.8,0.2l-0.1-0.1c0.1-0.2,0.2,0.1,0.4,0c-0.1,0.2,0,0.3,0,0.4
							c0-0.1,0.2,0.1,0.4-0.2l0,0.3c0.2,0.2,0.5-0.4,0.7-0.2c-0.2,0.2-0.1,0.3-0.3,0.4c0.1,0,0.1,0.1,0.2,0c0,0.1,0.3-0.2,0.3,0.1
							c0.1-0.1,0.2-0.3,0.2-0.2c0,0,0,0.1,0,0.1c0-0.1,0.2-0.1,0.2-0.3c0,0.7,0.7,0.3,0.8,0.8c0.2,0,0.5,0,0.6,0.1
							c0,0.1,0,0.1-0.1,0.1c0.2,0.3,0.4-0.5,0.5-0.2c0,0.4-0.2,0.1-0.2,0.2c-0.2,0.6,0.3,0.1,0.4,0.5l-0.1,0c0,0.3,0.4-0.1,0.6,0
							c0,0,0,0,0,0.1c0.3-0.2,0.6-0.2,0.9-0.2c-0.2,0.2-0.1,0.1-0.2,0.3c0.1,0,0.1-0.4,0.4-0.4c0,0.2,0.1,0.3,0,0.6l-0.2-0.1
							c0,0.4,0.2,0.1,0.3,0.2l-0.1,0.1c0.3,0.1,0.4-0.3,0.7-0.1l0-0.1c0.3-0.3,0,0.3,0.3,0.1l-0.1,0.4c0.1,0,0.5-0.2,0.7-0.2
							c-0.2,0.2-0.5,0.3-0.7,0.4c0.1,0,0.4,0.1,0.5,0c-0.1,0-0.1,0.1-0.2,0c0.3-0.2,0.5-0.3,0.7-0.2c-0.3,0.7,0.5,0.4,0.4,1
							c0.5-0.1,0.7,0.4,1.1,0.6c0.1-0.6,0.1,0,0.4-0.5c0.1,0,0.1,0,0.1,0.1l0.2,0.5c0,0.2-0.1,0.1-0.2,0.2c0.2,0.1,0,0.3,0.1,0.5
							c0.1-0.2,0.2-0.3,0.3-0.1l-0.1-0.3c0.4-0.2,0.1,0.6,0.5,0.4l-0.2,0.1c0.2,0,0.6,0.3,0.9-0.1c0,0.1,0,0.2-0.1,0.3
							c0.3,0.2,1-0.1,1.2,0.3l-0.1,0.1c0.1,0,0.2-0.2,0.3,0c0,0.1-0.1,0.1-0.1,0.1c0.1,0,0.3-0.2,0.3,0l-0.1,0.1
							c0.3,0.3,0.7-0.1,1.1-0.1c-0.2,0.4,0,0.7,0.2,0.8l0,0.1c0.4,0.2,0.9,0,1.3,0c0,0.5,0.7,0.6,1,1c0-0.1,0.2-0.3,0.2-0.3
							c0.1,0.1,0.4-0.2,0.2,0.2l0,0c-0.1,0.4,0.1,0.4,0.3,0.5l0.3-0.5c0,0.9,1.1,0.2,1,0.9c0.1-0.1,0.3,0,0.4-0.1l-0.1,0.3
							c0.2,0.2,0.3,0.3,0.7,0.4l-0.2,0.2c0.2,0.1,0.6-0.6,0.8-0.6l-0.1,0.4c0.3,0.1,0.5,0.6,0.9,0.4c0,0.1-0.1,0.2-0.2,0.1
							c0.1,0.1,0.4,0.5,0.6,0c-0.2,0.3,0.3,0.2,0.5,0.1l-0.2,0.2c0.3-0.2,0.4-0.3,0.6-0.3c0,0.1-0.1,0.2-0.1,0.1
							c0.1,0.2,0.2-0.2,0.4,0.1l-0.2,0.1c0.1,0.1,0.2,0,0.4-0.1c0.2,0,0.3,0.2,0.2,0.5c0.1-0.1,0.3-0.3,0.3-0.1
							c0,0.1-0.1,0.1-0.1,0.1c0.2,0.3,0.5-0.1,0.6,0.3c0,0.1-0.1,0.1-0.1,0.2c-0.2-0.1-0.4-0.2-0.3-0.2c-0.1,0.2,0,0.4-0.3,0.6
							c0.2-0.1,0.7-0.3,0.8-0.1c0,0,0,0.1,0,0.1l0,0c0,0,0.1,0,0.1,0c0,0.1,0,0.1,0.1,0.1c-0.1,0.2,0.1,0.2,0.2,0.3
							c0.1-0.2,0.2-0.1,0.2-0.4c0,0,0,0-0.1,0c0,0,0,0,0,0l0,0c-0.1,0-0.1-0.1-0.2-0.1c0.1-0.1,0.3-0.1,0.3,0
							c0.1-0.1,0.3-0.3,0.3-0.3c-0.1,0.4,0,0.7-0.1,0.9c0.3,0,0.6,0.3,1.1-0.1c0.1,0,0,0.2,0,0.3c-0.1,0-0.1,0-0.2,0
							c0.2,0,0.4,0.2,0.7-0.1c0.1,0.3-0.3,0.2,0,0.3l-0.1,0.1c0.1,0.8,1.3-0.3,1.3,0.7c0-0.1,0-0.1,0-0.1c0.4,0.7,1.3,0.7,1.5,1.5
							c0.1,0.2,0.2,0,0.5,0l-0.2,0.3l0.4-0.1c0.4,0-0.2,0.9,0.4,0.8l0.1-0.2c0.1,0.1,0.4,0.2,0.2,0.4c0,0,0.2-0.1,0.1,0l-0.1,0.1
							l0.4,0.1c0.1,0.3-0.5,0.4-0.3,0.7c0.1,0.1,0.6,0,0.6-0.1c0,0,0-0.2,0.1-0.3l0.1,0c0.4-0.3,0.8-0.5,0.8-1l-0.4,0l0.1-0.2
							l0.1,0.1c0.1-0.2-0.1-0.2-0.2-0.1c0.1-0.1,0.1-0.2,0.1-0.2l-0.5,0.1c0.1-0.1,0.3-0.2,0.3-0.4c-0.2,0.1-0.2,0.3-0.5,0.3
							c0.1-0.2,0.2-0.3,0-0.3c0.1-0.1,0.1-0.1,0.2-0.1c-0.2,0-0.3-0.2-0.5,0c0.1-0.3-0.3-0.2,0-0.5c-0.1,0-0.4,0.1-0.5,0
							c0.5-0.2-0.3-0.3,0.2-0.7c-0.4,0.2-0.5-0.2-0.9-0.2c0,0,0.1-0.1,0.1,0c-0.1-0.1,0-0.3,0-0.4c-0.3,0.3-0.5,0.2-0.7,0.3
							c0.1-0.4,0.4-0.3,0.6-0.6c-0.2,0.2-0.4,0.1-0.6,0.3c0-0.3,0-0.2,0.1-0.5c-0.3,0.4-0.1,0-0.4,0.2c0-0.3,0.2-0.4,0-0.4
							C446.3,68.3,446.5,68.2,446.5,68.2z M441.9,66.2L441.9,66.2C442,66.2,442,66.2,441.9,66.2C442,66.2,442,66.2,441.9,66.2z
							 M441.6,66c0,0,0.1,0.1,0.1,0.1c0,0.1-0.1,0.2-0.1,0.1C441.7,66.2,441.6,66.1,441.6,66z M441.3,68.1c-0.1,0-0.1-0.1,0-0.1
							C441.3,68,441.4,68,441.3,68.1l0.1-0.1C441.4,68,441.4,68.1,441.3,68.1z"/>
						<path class="st5" d="M441.6,67.8C441.6,67.8,441.7,67.8,441.6,67.8C441.7,67.8,441.7,67.8,441.6,67.8L441.6,67.8L441.6,67.8z"
							/>
						<path class="st5" d="M408.6,52.8L408.6,52.8C408.6,52.8,408.6,52.8,408.6,52.8C408.6,52.8,408.6,52.8,408.6,52.8z"/>
						<polygon class="st5" points="436.8,62.9 436.8,63 436.9,63 						"/>
						<path class="st5" d="M406.9,51.1C406.9,51.1,406.9,51,406.9,51.1C406.8,51,406.9,51.1,406.9,51.1z"/>
						<path class="st5" d="M406,50.7l-0.1-0.1C405.9,50.6,406,50.7,406,50.7z"/>
						<path class="st5" d="M405.3,50.3c0,0,0,0.1-0.1,0.1l0,0L405.3,50.3z"/>
						<path class="st5" d="M416.4,54.2C416.4,54.2,416.4,54.2,416.4,54.2C416.5,54.2,416.5,54.2,416.4,54.2z"/>
						<path class="st5" d="M412.9,53.6c0.1,0,0.1-0.1,0.2-0.1C413,53.4,413,53.4,412.9,53.6z"/>
						<polygon class="st5" points="420.1,55.4 420.1,55.4 420.2,55.4 						"/>
						<path class="st5" d="M413.2,53.5c0-0.1-0.1-0.1-0.1-0.1C413.1,53.5,413.1,53.6,413.2,53.5z"/>
						<path class="st5" d="M402.4,49.1L402.4,49.1C402.4,49.1,402.4,49.1,402.4,49.1L402.4,49.1z"/>
						<path class="st5" d="M402.4,49.1L402.4,49.1C402.3,49.1,402.3,49.1,402.4,49.1z"/>
						<path class="st5" d="M402.2,49.1l0.1,0C402.3,49.1,402.2,49.1,402.2,49.1z"/>
						<path class="st5" d="M403.3,49.5L403.3,49.5C403.3,49.5,403.3,49.5,403.3,49.5z"/>
						<path class="st5" d="M403.6,49.6c-0.1,0-0.1-0.3-0.2-0.2l0,0.1C403.4,49.3,403.4,49.7,403.6,49.6z"/>
						<path class="st5" d="M404.3,51.2l-0.2-0.2c0,0.1,0,0.3-0.1,0.3C404.1,51.7,404,51.1,404.3,51.2z"/>
						<path class="st5" d="M404.9,51.6c-0.1,0-0.1,0.1-0.1,0.2C405,51.8,405,51.8,404.9,51.6z"/>
						<path class="st5" d="M410.1,53.6l-0.1,0.2C410.1,53.8,410.1,53.8,410.1,53.6z"/>
						<polygon class="st5" points="411.6,52.8 411.6,52.6 411.4,52.8 						"/>
						<polygon class="st5" points="411.5,54.7 411.5,54.7 411.7,54.7 						"/>
						<path class="st5" d="M420.2,58.1l0.1-0.3C420.2,57.8,420,58.1,420.2,58.1z"/>
						<path class="st5" d="M424,59.3c0,0.2,0,0.3,0.2,0.2C424.1,59.5,424.1,59.3,424,59.3z"/>
						<polygon class="st5" points="434.8,64.8 434.7,64.8 434.8,64.8 						"/>
					</g>
				</g>
			</g>
		</g>
	</g>
	<path class="st7" d="M368,243c2.3-1.3,6.7,2.3,10,5c4.9,4,4.8,5.9,8,7c3.4,1.2,3.8-0.8,10,0c4.1,0.5,4.1,1.4,9,2
		c2.4,0.3,3.3,0.2,4,1c1.5,1.9-0.1,6.9-3,8c-2.2,0.8-3.3-1.4-7-2c-6.2-1.1-8,5-13,4c-4.7-0.9-3.8-8.3-10-11c-3.4-1.5-4.9-0.2-7-2
		C365.4,251.9,365.4,244.4,368,243z"/>
	<path class="st8" d="M352.5,269"/>
</g>
<g id="Capa_9">
</g>
<g id="Capa_6">
	<path class="st9" d="M314.5,219.4c0.5,1.9,1.2,4.7,2.2,8.2c1.2,4.4,1.7,5.9,1.3,6.2"/>
	<path class="st10" d="M460,311c0.1,0,0.8-0.7,2-1.9c9.1-9.3,46.1-50.1,46.2-51l10.7-92.6c0-0.3,0-0.6-0.1-0.9l-25.4-81.9
		c-0.3-1-1.2-1.6-2.2-1.6H458l-47,8c-19,7,17.1,8.7,19,10c10.1,6.8,26.6,6.2,31,12c23.1,30.8,15,24,24,43c7.3,15.3-7,20-2,46
		c1.3,6.6,1.2,28.3,2,43c0.2,3.8-3.5,11-10,16l6-2l-16,37l-6,28L460,311l41,17"/>
	<g id="Capa_4">
		<path class="st11" d="M375,345c4.7,0.6,11-0.6,31.5-9.5c19.5-8.5,32-11,43.5-20.5c5.4-4.4,19-25.7,20-25c1.2,0.9-11.4,52.7-17,60
			c1.3-1.8-16-19-30.5-13.5c-11.2,4.2-15.5,8.9-22,11c-21.7,7.1-44.5,4-49-3c-0.5-0.8-2.7-4.6-6.9-8.4c-1.4-1.3-2.7-2.2-3.1-2.6
			c-1.3-0.9-4.8-3.4-10-5c-7.8-2.5-10.4,1.9-10.5-1.5c-0.5-14.5-6-28-3-33c1.4-2.3,4,9.8,14.5,23.5c3.3,4.3,7,8,8,9
			c4.9,4.8,9.3,8.1,12,10c3.2,2.2,6,4.2,10,6C362.5,342.5,367.9,344.2,375,345z"/>
		<path class="st12" d="M328.3,403c0,0-0.2,5.1,2.8,8c16.9,17,10.8,10.9,8.9,10c-17-8-44.7,7-44.7,7s-21.1,10-21.1,13
			s-13.2,5-13.2,5c0.8-6.9,2.3-12.5,3.7-16.5c1.2-3.4,2.3-6,4.2-10.5c2.6-5.9,4-8.9,5.7-11.5c1.7-2.7,4.4-5.8,10.2-10.5
			c13.2-11,14.5-8,14.5-8l23.7-2L328.3,403z"/>
		<path class="st2" d="M274,466c1.8,11.2,2.8,17.5,6,26c5.4,14.4,13.1,23.9,18,30c1,1.2,9.5,11.6,19,19c27.6,21.4,65.7,18.7,89,17
			c15.3-1.1,35.2-7.4,57-16c2.9-1.2,58.6-19.9,85-79c7.2-16.1,9.3-33-1-53c-2.9-5.5-17.3-18.7-16-21c3.9-6.6,63.2,6.5,94,29
			c17.6,12.9,27.5,25.9,39,41c0,0,28.4,37.4,43.9,83.7c0.1,0.4,3.1,9.3,3.1,9.3c0,0-71.5,43-87,52c-151.4,87.5-352,35.9-379,29
			c-23.1-5.9-45-13.3-58-33c-20.1-30.3,5.9-52.4,11-142c0.5-8,1.9-36.5,17-44c11.4-5.6,19-5,19-5c5.7,0.5,5.5-0.2,10-3
			c2.2-1.4,7.1,0.5,10-2c2.6-2.2,5.2-3.4,10-5c13.1-4.5,15.1-4.5,25-7c4-1,7.5-1.6,8-1c0.9,1.2-2.2,7-8,15c-8,11.3-12.2,22.6-13,27
			C274.2,443.1,271.5,450.1,274,466z"/>
		<path class="st13" d="M391.4,178.5c0.4,0.7,0.6,1.4,0.7,2.2c0.5,3.2,2.9,12.3,1.9,18.8c-0.5,3.5-4,13.5-8,21.5
			c-4.8,9.7,1.1-1.9,0,0c-2.1,3.5,0-11,0-17c0-8.3-7.2-21.3-9-24c-4-6-5.4-11.3-11.9-14.5C358,162,344,158,344,158l20,3
			c1.9,0,4.1,1,5.7,1.9l17.2,9.6c1.2,0.6,2.1,1.6,2.7,2.8L391.4,178.5z"/>
	</g>
	<path class="st14" d="M344.8,116.4c-3,6.5-5.1,21.8-9,31c-1.1,2.6-2.2,4.8-2.2,4.8c-2.5,4.8-4.6,7.3-8.8,16.2
		c-5.9,12.3-9.4,19.8-11,30c-1.8,11.4,0.8,12.6-1,27c-1.6,12.6-1.3,12.2-2.6,22.6c-1.5,11.5,4.5,23.6,8,40c0.8,3.8,3.1,8.7,2.5,14.4
		c-0.2,2.2,1.3,5.5,0.5,6.6c0.3,3.2,2.6,57.5,2.4,68.4c0,0.9,1.5,9.1,0.6,10.6c-2.2,3.6-8.7,0.3-18,2c-9.8,1.8-13.7,2.3-14,0
		c-0.4-3.3,1.2-10.9,2.4-13.7c3.8-8.6,3.5-21.7,3.1-48c-0.5-28.5-4.7-25.9-4.9-52c-0.3-23.7,3.2-22.3,2.1-44
		c-0.7-12.5-2.3-22.2-1-39c0.8-10.2,1.3-15.5,4-21c4.5-9.2,10.3-11.4,13-22c0.4-1.7,0.1-0.9,2-11c1.5-7.9,2.3-11.8,3-14
		c2.6-7.3,4.6-6.7,6-13c0.9-3.7,0.5-5.5,2-10c0.2-0.7,1.3-3.8,3-7c3.7-6.7,6.8-6.6,13-14c4.1-4.8,3.7-6,9-12c4.2-4.8,6.3-6.1,8-7
		c2.8-1.4,4.3-1.3,7-3c3.2-2,4.4-4.1,6-6c2.9-3.3,8.9-5.6,21-10c6.3-2.3,9.5-3.4,12-4c3.7-0.8,10.7-2.3,19-1c10.9,1.7,13.7,6.5,22,5
		c3.8-0.7,3.6-1.8,7-2c2.3-0.1,6.4,0.1,17,7c5.2,3.4,7.9,5.1,11,8c7,6.5,8.8,11.6,14,12c2.5,0.2,3.6-0.9,6,0c3.4,1.2,4.8,4.7,6,7
		c5.1,10.1,10.1,8.5,15,18c2.1,4.1,2.7,8.1,4,16c1.1,6.9,2,12.6,1,20c-0.6,4.7-1.5,5.7-1,9c0.7,4.9,3,6.5,4,12c0.5,2.8,0.2,4.2,0,8
		c-0.3,6.8,0.2,11.7,1,19c1.3,12.6,3,11.3,3,19c0,6.2-1.1,8.8,0,15c0.8,4.8,1.9,5.8,3,10c2.2,8-0.1,10.2,0,23c0,5.2,0.7,10.8,2,22
		c0.9,7.8,1.7,13.3,2,15c2,13.7-8.4,38-0.3,54c1.4,2.8,3.6,5.7,3.7,10.3c0.2,5.2-2.3,6.3-1.6,12c0.3,2.1,0.9,4.4,2.1,8.7
		c1.7,5.9,1.5,3.3,6,16c1.8,5,14.6,17.4,10.6,33.9c-2.7,11.2,5.7,23.7,7.4,36.2c0.6,4.5-4.2,26.4,0.8,51.6
		c8.8,43.8-7.8,48.1-22,68.4c-7.3,10.4-17.6,20.6-21,24c-14.6,14.4-22.9,18-31,22C480,625,464.3,638.5,468,625
		c1.8-6.5,2.4-42.2,9.2-53.4c2.3-3.8,4.9-9.3,7-27c3.2-26.1,4.8-39.2,0.1-52c-6.7-18.2-16.4-14.4-25-32
		c-10.3-21.1-5.8-45.3-9.3-72.5c-2.4-18.5-7.5-26.5,1-40c6.8-10.8,3.1-20.6,6.5-31.5c5-16,14.2-26.5,19.5-48.5
		c5-21,11.2-16.1,15.5-51.5c3.6-29.8,0-28,2.2-43.9c2.7-19.6-1.5-52.6-18.4-65.9c-1-0.8,7.8-13.1,6.7-13.7c-1-0.6-11.9,10.5-13,10
		c-4.9-2-12-13-43.6-7.2c-13.9,2.5-30.1-1.1-45.9,0.7C371.2,97.6,350.6,104,344.8,116.4z"/>
	<path class="st9" d="M384,276"/>
	<path class="st9" d="M385,276c0.3-1.7,0.7-3.3,1-5"/>
	<path class="st9" d="M440,268"/>
	<path class="st14" d="M540,388"/>
</g>
<g id="Capa_7">
	<path class="st2" d="M342.1,184.3l13.4,8.1l6.9,1.6l12.9,2.2c0,0,4.8,2.3,4.7,0c-0.2-2.3-2.5-8-2.5-8l-1.6-2.7l-2-2.3l-5.9-3.8
		l-5.6-1.3l-7.7-0.6l-5.6,1.1l-7.7,2.8"/>
	<path class="st15" d="M352.1,267.7l29.4,11.2l35.4,4.3l7.1,4.3c0,0-2,7.7-14.2,12c-11.4,4-29.4,3.4-29.4,3.4l-16.2-6L346,279.8
		l-3-11.2l1-2.6L352.1,267.7z"/>
	<path class="st9" d="M340.5,184.1"/>
	<path class="st2" d="M361,187"/>
	<path class="st16" d="M446.4,216.5"/>
	<path class="st17" d="M384,160c-2.9,2.2-9.2-8.1-21-10c-10.6-1.7-17.5,4.7-21,1c-1.8-1.9-1.2-4.9,0-11c0.8-4,2.4-12,9-20
		c4.1-5,7.8-9.5,12-9c1.3,0.1,4.7,1,11,15c6.7,15,7.3,22.2,8,22c0.3-0.1,1.9,3,2,3C384.1,151,386.3,158.3,384,160z"/>
	<g>
		<path class="st18" d="M355,186c0-4.4,3.4-8,7.5-8s7.5,3.6,7.5,8s-3.4,7.5-7.5,7.5S355,190.4,355,186z"/>
		<g>
			<path class="st14" d="M355.8,186c0.2-3.7,2.7-7.3,6.8-7.3c3.9,0,6.8,3.5,6.8,7.3C369.2,194.8,356.2,194.7,355.8,186
				c0-1-1.5-1-1.5,0c0.2,4.6,3.5,8.3,8.3,8.3c4.6,0,8.3-3.7,8.3-8.3c0-4.4-3.3-8.5-7.8-8.7c-5-0.3-8.4,4-8.7,8.7
				C354.2,187,355.7,187,355.8,186z"/>
		</g>
	</g>
	<circle cx="363" cy="186" r="3"/>
	<circle cx="363" cy="186" r="3"/>
	<path class="st19" d="M380,194c0.6-0.2-0.3-3.1-1-6c-2.7-10.5-14-14.7-15-15c-5.5-1.8-10-1.3-12-1c-3.5,0.4-7.4,0.9-10,4
		c-2.5,2.9-3.1,5.4-2,6c0.7,0.4,1.7,0.9,5-1c3.9-2.3,7.3-2.9,8-3c2.7-0.5,4.8-0.2,7,0c3.4,0.4,7.6,0.9,11,3
		C377.9,185.3,378.8,194.3,380,194z"/>
	<path class="st19" d="M426,205c0-1.3,0.4-4.3,1-5c3.3-3.6,8.2-4.8,12-5c4.7-0.2,8-1,18,6c1.5,1.1,6,4,10,12c0.5,1,0.8,3.6,0,4
		c-1.8,0.9-5.1-11.8-15-15C430,195,426,210,426,205z"/>
	<circle class="st20" cx="365" cy="184" r="2"/>
</g>
<g id="Capa_1">
	<path class="st21" d="M438.8,208.4c0.3-4.4,3.9-7.8,8-7.5c4.1,0.3,7.3,4.1,7,8.5c-0.3,4.4-4.1,6.4-8.2,6.1S438.5,212.8,438.8,208.4
		z"/>
	<g>
		<path d="M339,182c1.1-0.5,1.8-1,2.7-1.5l2.8-1.4c1.9-1,4-1.9,6.2-2.4c1.1-0.3,2.2-0.5,3.4-0.6c0.6,0,1.2-0.1,1.7-0.1l1.5,0
			c2.2-0.1,4.4,0.1,6.7,0.5c2.2,0.4,4.4,1.1,6.5,2.3c2,1.1,3.8,2.7,5.2,4.5c2.8,3.6,4,8,4.3,12.2c-1.4-4-3.3-7.8-6.2-10.6
			c-1.4-1.4-3-2.5-4.8-3.3c-0.9-0.4-1.8-0.7-2.7-0.9c-0.9-0.2-1.9-0.4-2.9-0.5c-2-0.2-3.9-0.2-6-0.2l-1.6,0l-1.5,0
			c-1,0-1.9,0.1-2.9,0.2c-1.9,0.2-3.9,0.7-5.9,1.3c-1,0.3-2,0.6-3.1,0.9c-0.5,0.1-1.1,0.2-1.7,0.1C340.1,182.6,339.5,182.4,339,182z
			"/>
	</g>
	<g>
		<path d="M469,217c-1,0.2-2.2,0-3.2-0.6c-0.5-0.3-0.9-0.7-1.3-1.1c-0.4-0.4-0.7-0.9-1-1.3c-1.3-1.6-2.8-3.1-4.2-4.6
			c-0.7-0.8-1.5-1.5-2.2-2.2c-0.7-0.7-1.4-1.2-2.2-1.7c-0.8-0.5-1.7-1-2.6-1.5l-1.4-0.7c-0.3-0.2-0.7-0.3-1.1-0.5
			c-1.8-0.5-3.8-0.9-5.8-1.1c-1-0.1-2-0.2-3.1-0.3c-1-0.1-1.9-0.1-2.9,0c-1.9,0.2-3.9,0.6-5.8,1.3c-1.9,0.7-3.8,1.7-5.8,2.5
			c1.5-1.6,3-3.1,4.9-4.3c0.9-0.6,1.9-1.2,3-1.6c1.1-0.4,2.1-0.8,3.3-1.1c1.1-0.3,2.3-0.4,3.4-0.4c1.1,0,2.2,0,3.3,0
			c2.2,0.1,4.4,0.4,6.7,1.1c0.6,0.2,1.2,0.4,1.8,0.8l1.4,0.8c0.9,0.6,1.9,1.2,2.8,1.9c0.9,0.7,1.8,1.6,2.5,2.5
			c0.7,0.9,1.3,1.8,1.9,2.6c1.2,1.8,2.4,3.6,3.3,5.6c0.4,1,0.8,1.8,1.5,2.6C467,216.4,467.9,216.9,469,217z"/>
	</g>
	<g>
		<path class="st22" d="M372.5,236.5c-1.3,0.7-2.6,1.6-3.6,2.6c-1,1.1-1.7,2.3-2.1,3.7c-0.4,1.4-0.3,2.9,0.1,4.3
			c0.4,1.4,0.9,2.9,1.4,4.3c0.3,0.7,0.7,1.3,1.1,1.9c0.2,0.3,0.5,0.5,0.7,0.6c0.3,0.1,0.4,0.1,0.6-0.1c0.3-0.3,0.6-1.3,1.5-1.9
			c0.9-0.6,2.2-0.6,2.9-0.1c0.8,0.5,1.3,1.1,1.9,1.6c0.5,0.6,1.1,1.1,1.5,1.8c0.9,1.3,1.5,2.7,1.9,4.2c0,0,0,0.1,0,0.1
			c0,0-0.1,0-0.1,0c-0.5-1.4-1.2-2.8-2.2-3.8c-0.5-0.5-1.1-1-1.7-1.4c-0.6-0.5-1.3-0.8-1.9-0.8c-0.6,0-1,0-1.4,0.1
			c-0.2,0.1-0.5,0.2-0.7,0.5c-0.3,0.2-0.6,0.5-1.1,0.8c-0.5,0.3-1.2,0.2-1.6,0c-0.4-0.3-0.7-0.6-0.9-1c-0.4-0.7-0.7-1.4-0.9-2.2
			c-0.5-1.5-0.9-2.9-1.3-4.4c-0.2-0.7-0.5-1.5-0.6-2.2c-0.1-0.8-0.2-1.6,0-2.4c0.3-1.6,1.2-3,2.4-4
			C369.6,237.6,371,236.8,372.5,236.5C372.5,236.4,372.5,236.5,372.5,236.5C372.5,236.5,372.5,236.5,372.5,236.5z"/>
	</g>
	<path class="st23" d="M396.5,277.5"/>
	<g>
		<path class="st22" d="M410.5,252.5c1.3,2.6,1.7,5.6,0.9,8.4c-0.2,0.7-0.4,1.4-0.7,2.1c-0.3,0.7-0.8,1.3-1.5,1.7
			c-0.4,0.2-0.8,0.3-1.3,0.3c-0.5,0-0.8-0.2-1.2-0.4c-0.7-0.4-1.3-0.7-2-1c-1.3-0.6-2.6-1.1-3.7-1.9c-1.2-0.7-2.4-1.4-3.6-2
			c-0.6-0.3-1.2-0.5-1.7-0.6c-0.1,0-0.3,0-0.4,0c0,0-0.1,0-0.2,0c0,0-0.1,0-0.1,0c-0.1,0-0.3,0.1-0.4,0.4c-0.2,0.5-0.3,1.2-0.3,1.9
			c0,0.7,0.1,1.4,0.1,2.1c-0.3-0.6-0.6-1.3-0.8-2c-0.2-0.7-0.4-1.5-0.3-2.4c0.1-0.4,0.3-1,0.8-1.3c0.1-0.1,0.2-0.1,0.4-0.2
			c0.1,0,0.2-0.1,0.4-0.1c0.3-0.1,0.5-0.1,0.7-0.1c0.9,0,1.7,0.2,2.4,0.4c1.5,0.4,2.8,1.1,4.1,1.8c0.7,0.3,1.3,0.7,1.8,1.2
			c0.6,0.5,1.1,1,1.6,1.6c1,1.1,2.1,2.2,3.2,1.7c0.5-0.2,1-0.7,1.4-1.3c0.4-0.6,0.6-1.2,0.9-1.9c0.4-1.3,0.7-2.7,0.6-4.2
			C411.5,255.2,411.1,253.8,410.5,252.5z"/>
	</g>
	<g>
		<path class="st14" d="M338.4,159.1c4.7-1.5,9.7-2.5,14.8-2.7c2.5-0.1,5.1-0.1,7.6,0.2c2.7,0.2,5.4,1,7.8,2c4.9,2.1,9,4.9,13.4,7.1
			c1.1,0.5,2.1,1.2,3.2,1.7c1,0.6,2,1.3,2.9,2.2c0.9,0.9,1.9,1.8,2.8,3.3c0.5,0.7,0.9,1.7,1,2.6c0.1,0.9-0.2,1.8-0.6,2.5
			c-0.1,0.2-0.5,0.3-0.7,0.2c0,0,0,0-0.1,0l0,0c-0.6-0.5-1.1-0.9-1.6-1.1c-0.5-0.2-0.9-0.1-1.4-0.2c-1-0.1-2.2-0.4-3.3-0.8
			c-1.2-0.4-2.4-0.9-3.4-1.7c-1-0.8-2-1.5-3-2.4c-3.8-3.3-7.6-6.3-11.5-8.8c-1.9-1.2-4-2.2-6.1-2.8c-2.3-0.5-4.7-0.9-7.1-1.1
			c-4.8-0.4-9.7-0.2-14.5,0.5c-0.2,0-0.4-0.1-0.5-0.3C338.1,159.4,338.2,159.2,338.4,159.1z"/>
	</g>
	<g>
		<path class="st14" d="M476.6,197.6c-1.1-0.6-2.1-1.4-3.1-2c-1-0.7-2-1.3-3-1.8c-1-0.6-2.1-1.1-3.2-1.6c-1.1-0.5-2.2-1.1-3.3-1.8
			c-1.1-0.7-2.1-1.4-3-2c-0.9-0.6-1.7-1-2.5-1.2c-0.8-0.2-1.7-0.3-2.7-0.3c-1,0.1-2.1,0.2-3.2,0.4l-1.7,0.3l-1.8,0.3
			c-1.2,0.2-2.4,0.3-3.6,0.4c-2.4,0.2-4.8,0.2-7.2,0.1c-2.4,0-4.8-0.1-7.2-0.3c-2.4-0.1-4.8-0.4-7.1-0.2l-0.1,0
			c-0.2,0-0.4-0.1-0.5-0.4c0-0.1,0-0.2,0.1-0.3c0.4-0.6,1-1,1.5-1.4c0.6-0.4,1.1-0.7,1.7-1c1.2-0.6,2.3-1.1,3.5-1.6
			c2.4-0.9,4.8-1.6,7.2-2.1c2.4-0.5,4.8-0.9,7.3-1.2c1.2-0.1,2.4-0.2,3.6-0.2l1.8,0l0.9,0l1,0c1.3,0,2.7,0.2,4.1,0.3
			c1.4,0.2,2.9,0.6,4.4,1.2c1.5,0.6,2.8,1.5,3.8,2.4c1,0.9,1.9,1.7,2.7,2.4c1.7,1.4,3.7,3.1,5.4,5c0.9,0.9,1.7,1.9,2.4,3
			c0.7,1,1.4,2,2.1,3c0.1,0.2,0.1,0.4-0.1,0.6C476.9,197.7,476.7,197.7,476.6,197.6z"/>
	</g>
	<g>
		<path d="M377.5,196.5c-0.8,0.1-1.7-0.1-2.5-0.3c-0.8-0.2-1.6-0.4-2.4-0.7c-1.6-0.4-3.2-0.8-4.8-0.8c-3.3,0.1-6.7-0.1-9.9-0.9
			c-1.6-0.4-3.2-0.8-4.8-1.4c-1.6-0.6-3.1-1.4-4.5-2.2c-2.8-1.7-5.5-3.7-8.1-5.7c0,0,0,0,0-0.1c0,0,0,0,0.1,0
			c2.9,1.6,5.7,3.4,8.6,4.9c1.4,0.8,2.9,1.6,4.4,2.2c1.5,0.6,3.1,1.1,4.7,1.5c3.2,0.8,6.4,1.1,9.7,1.1c1.7,0.1,3.3,0.6,4.9,1.1
			c0.8,0.3,1.6,0.5,2.4,0.8C375.9,196.3,376.7,196.5,377.5,196.5C377.5,196.4,377.5,196.5,377.5,196.5
			C377.6,196.5,377.5,196.5,377.5,196.5z"/>
	</g>
	<g>
		<path d="M465.8,216.7c-1.6,0.3-3.1,0.4-4.7,0.6c-1.6,0.1-3.2,0.2-4.8,0.2c-3.2,0.1-6.4-0.3-9.5-0.6c-3.2-0.3-6.4-0.9-9.4-2.1
			c-1.5-0.6-2.9-1.4-4.2-2.3c-1.3-0.8-2.7-1.8-3.7-3c0.6,0.5,1.2,1,1.9,1.4c0.7,0.4,1.4,0.7,2.1,1.1c1.4,0.8,2.8,1.4,4.3,2
			c2.9,1.1,6,1.6,9.2,1.9c1.6,0.2,3.2,0.3,4.7,0.5c1.6,0.2,3.1,0.3,4.7,0.4C459.5,216.9,462.6,216.8,465.8,216.7z"/>
	</g>
	<path class="st24" d="M382.5,226.5"/>
	<path class="st24" d="M393.5,193.5"/>
	<path class="st25" d="M334.5,258.5c0,0,7-5,13-6"/>
	<path class="st26" d="M433.7,296.5C445.2,286.2,415,267,415,267l2.5-3.5l17.3,22.3"/>
	<path class="st27" d="M380,189c-0.6-2.2-3.1-8-11-13c-11.9-7.5-26.1,0.6-27,1"/>
	<path class="st23" d="M433.5,235.5"/>
	<path class="st23" d="M464.5,234.5"/>
	<path class="st28" d="M428.5,198.5c0,0,8.7-5.7,19-3s20,17,20,17"/>
	<circle cx="446" cy="208" r="3"/>
	<path class="st23" d="M379.5,194.5"/>
	<path class="st29" d="M328.5,192.5"/>
	<linearGradient id="SVGID_2_" gradientUnits="userSpaceOnUse" x1="349.7811" y1="283.575" x2="413.2337" y2="283.575">
		<stop  offset="0" style="stop-color:#F2F2F2"/>
		<stop  offset="2.249167e-02" style="stop-color:#F0F0F0"/>
		<stop  offset="3.058468e-02" style="stop-color:#E9E9E9"/>
		<stop  offset="3.266332e-02" style="stop-color:#E6E6E6"/>
		<stop  offset="0.5942" style="stop-color:#E4E4E4"/>
		<stop  offset="0.8041" style="stop-color:#DDDDDD"/>
		<stop  offset="0.9548" style="stop-color:#D1D1D1"/>
		<stop  offset="1" style="stop-color:#CCCCCC"/>
	</linearGradient>
	<path class="st30" d="M353,270c-4.3,3.3-4.3,10.1,0,15c2.6,2.9,37.7,13.5,49,12c12.6-1.7,12.1-8.1,10.3-11.5"/>
	<path class="st31" d="M349.3,279.1c-3.3-3.1-3-10.6-4.1-12.5c-0.8-1.4-2.5,0.3-2.1,0c0.9-0.7,9.1,3.9,17.6,7.1
		c4.9,1.8,10.4,4.7,17.6,6.3c0,0,33.1,7.1,42.5,6.3c0,0,4.1,0.8,4.3,1.3c0.1,0.2,0.8-0.2,0.9-0.5c0.8-1.9-13.5-8.6-25.9-10.2
		c-5.1-0.6-13,1.1-19.7-0.8c-1.7-0.5-3.4-1.1-3.4-1.1c-5-1.8-8.4-3.6-9-4.4c-2.9-3.5-11.5-3.4-17.6-3.9c-3.2-0.3-5.6-1.1-7.2,0
		c-5.6,3.7,0.3,16.7,8.3,25.1c2.9,3,14.4,12.8,34.2,13.3c14.2,0.4,24.4-3,25.9-3.9c5-2.9,7.9-6.1,9.3-7.8c0.9-1,5.9-5.7,5.2-6.3
		c-0.8-0.6-7.4,3.5-8.3,3.9c-8,3.9-21.3,4.5-30,3.1c-15.5-2.4-21.4-3.5-28.6-9C358.6,284.7,350.4,280.1,349.3,279.1z"/>
	<path class="st32" d="M356.1,287.1c0.8-0.7,8,5.4,17.8,7.7c18.1,4.3,36.3-2.3,38,0.9c0.5,0.9-1.8,2.8-2.4,3.4
		c-6.2,6.2-28.6,4.9-42.8-2.6C361,293.5,355.4,287.7,356.1,287.1z"/>
	<path class="st26" d="M422.5,307.5"/>
	<g>
		<path class="st9" d="M342,188c0.4,1.7,1.8,2.5,3.2,3.1c1.4,0.7,3,1.1,4.5,1.5c3.1,0.8,6.3,1.4,9.5,2c3.2,0.6,6.4,1.1,9.6,1.8
			c3.2,0.6,6.5,1.2,9.7,2.1c-3.3,0.4-6.6,0.4-10,0.2c-3.3-0.2-6.6-0.5-9.9-1.1c-3.3-0.6-6.5-1.4-9.7-2.7c-1.6-0.6-3.1-1.4-4.5-2.5
			c-0.3-0.3-0.7-0.5-1-0.9c-0.3-0.3-0.6-0.7-0.9-1C342.1,189.7,341.8,188.8,342,188z"/>
	</g>
	<g>
		<path class="st9" d="M464.5,218.5c-2.6,1.9-5.8,2.8-9,3.2c-3.2,0.4-6.5,0.2-9.7-0.5c-3.2-0.7-6.2-1.9-9-3.5
			c-2.8-1.7-5.2-3.8-7.3-6.2c2.8,1.5,5.5,3,8.3,4.2c2.8,1.1,5.7,2.1,8.6,2.7c2.9,0.6,5.9,1,8.9,1.1
			C458.4,219.5,461.4,219.3,464.5,218.5z"/>
	</g>
</g>
<g id="Capa_8">
	<g>
		<path class="st33" d="M403,71.1l-13.1,3.5l-6.6,1.7c-2.2,0.6-4.3,1.1-6.4,2c-2.1,0.8-4.1,1.8-6,3c-1.9,1.2-3.8,2.5-5.6,3.7
			l-11.3,7.6l-2.8,1.9c-0.9,0.6-1.8,1.3-2.6,2c-1.6,1.5-3,3.1-4.2,5c-1.1,1.8-2.3,3.9-3.4,5.8l-3.5,5.8c-4.7,7.7-9.5,15.4-14.6,22.9
			l-0.2-0.1c4.1-8.1,8.6-15.9,13-23.8l3.4-5.9l1.7-2.9c0.6-1,1.1-1.9,1.8-2.9c1.3-1.9,2.9-3.7,4.7-5.2c0.9-0.8,1.8-1.5,2.8-2.1
			l2.9-1.8l11.4-7.3c1.9-1.2,3.8-2.4,5.7-3.6c2-1.2,4-2.2,6.2-3c2.1-0.8,4.4-1.3,6.6-1.8l6.6-1.5l13.2-3.1L403,71.1z"/>
	</g>
	<path class="st34" d="M397.5,118.5"/>
	<g>
		<path class="st33" d="M402,55.1l-13.1,3.5l-6.6,1.7c-2.2,0.6-4.3,1.1-6.4,2c-2.1,0.8-4.1,1.8-6,3c-1.9,1.2-3.8,2.5-5.6,3.7
			l-11.3,7.6l-2.8,1.9c-0.9,0.6-1.8,1.3-2.6,2c-1.6,1.5-3,3.1-4.2,5c-1.1,1.8-2.3,3.9-3.4,5.8l-3.5,5.8c-4.7,7.7-9.5,15.4-14.6,22.9
			l-0.2-0.1c4.1-8.1,8.6-15.9,13-23.8l3.4-5.9l1.7-2.9c0.6-1,1.1-1.9,1.8-2.9c1.3-1.9,2.9-3.7,4.7-5.2c0.9-0.8,1.8-1.5,2.8-2.1
			l2.9-1.8l11.4-7.3c1.9-1.2,3.8-2.4,5.7-3.6c2-1.2,4-2.2,6.2-3c2.1-0.8,4.4-1.3,6.6-1.8l6.6-1.5l13.2-3.1L402,55.1z"/>
	</g>
	<path class="st35" d="M407,241c-0.1-7.9,9-23,12-30c1.8-4.2,5.1-9.8,8-15c4.7-8.6,19.6-8.6,18-10c-1-0.9-17.3,0.9-18.9,0.9
		c-3.4,0-6.1,6-7.1,8.7c0,0-1.6,2.9-7,14.5c-2,6.8-1.6,5.6-2,7.8c-0.3,1.3-0.3,2.4-1,8C408.6,229.1,407,241,407,241"/>
	<circle class="st20" cx="448" cy="206" r="2"/>
	<g>
		<path class="st33" d="M498.2,333.6l-5.4,18.5l-2.7,9.3c-0.4,1.5-0.9,3.1-1.3,4.6c-0.4,1.5-0.7,3.1-1,4.7c-0.5,3.1-0.8,6.3-0.8,9.5
			c0,3.2,0.2,6.4,0.4,9.6l0.8,19.3l0.2,4.8c0.1,1.6,0.2,3.1,0.5,4.7c0.5,3.1,1.4,6.1,2.7,9c0.6,1.4,1.4,2.8,2.2,4.2l2.3,4.2l4.5,8.5
			c5.9,11.4,11.9,22.8,17.5,34.4l-0.2,0.1c-6.6-11.1-12.8-22.3-19.1-33.6l-4.6-8.5l-2.3-4.3c-0.7-1.4-1.5-2.8-2.2-4.4
			c-1.3-3-2.2-6.2-2.7-9.5c-0.2-1.6-0.4-3.3-0.4-4.9l-0.1-4.8l-0.5-19.3c-0.1-3.2-0.2-6.4-0.2-9.7c0.1-3.2,0.4-6.5,1-9.7
			c0.3-1.6,0.7-3.2,1.1-4.7c0.4-1.6,0.9-3.1,1.4-4.6l2.9-9.2l5.8-18.4L498.2,333.6z"/>
	</g>
	<g>
		<path class="st33" d="M519.2,333.6l-5.1,18l-2.5,9c-0.9,3-1.7,6-2.2,9c-0.5,3-0.7,6.1-0.7,9.2c0.1,3.1,0.3,6.2,0.5,9.3l1,18.6
			l0.3,4.7c0.1,1.5,0.3,3,0.6,4.5c0.6,3,1.5,5.9,2.9,8.6l8.9,16.3c5.8,11,11.7,22,17.2,33.1l-0.2,0.1c-6.5-10.6-12.6-21.5-18.8-32.3
			c-3-5.5-6.1-10.8-9-16.4c-1.3-2.9-2.3-6-2.8-9.1c-0.3-1.6-0.4-3.2-0.5-4.8l-0.2-4.7l-0.7-18.7c-0.1-3.1-0.3-6.2-0.3-9.4
			c0-3.1,0.3-6.3,0.8-9.4c0.5-3.1,1.5-6.1,2.4-9.1l2.7-8.9l5.5-17.9L519.2,333.6z"/>
	</g>
</g>
</svg>
